# xmcd
#
# Track frame offsets:
#	150
#	14655
#	29515
#	44380
#	59682
#	73837
#	88905
#	102235
#	115575
#	132437
#	150280
#	167642
#
# Disc length: 2474 seconds
#
# Revision: 8
# Processed by: cddbd v1.5.1PL2 Copyright (c) Steve Scherf et al.
# Submitted via: EasyCDDAExtractor 10.0.2.1
#
DISCID=a409a80c
DTITLE=Billie Hoilday - The Millenium Collection
DYEAR=2002
DGENRE=Blues
TTITLE0=Strange Fruit
TTITLE1=Fine And Mellow
TTITLE2=Lover Man
TTITLE3=Don't Explain
TTITLE4=Good Morning Heartache
TTITLE5=T'Aint Nobody's Bizness If I do
TTITLE6=My Man
TTITLE7=I Loves You Porgy
TTITLE8=Lady Sings The Blues
TTITLE9=I've Got My Love To Keep Me Warm
TTITLE10=I Cover The Waterfront
TTITLE11=god bless the child
EXTD=YEAR: 2002 ID3G: 0
EXTT0=
EXTT1=
EXTT2=
EXTT3=
EXTT4=
EXTT5=
EXTT6=
EXTT7=
EXTT8=
EXTT9=
EXTT10=
EXTT11=
PLAYORDER=
